<?xml version="1.0" encoding="UTF-8"?>
<svg id="Layer_1" xmlns="http://www.w3.org/2000/svg" viewBox="0 0 15.72 15.84">
  <defs>
    <style>
      .cls-1 {
        fill: #7394ff;
      }
    </style>
  </defs>
  <path class="cls-1" d="M1.9,5.39c.5-.14.95-.07,1.14-.04,1.13.21,1.81.89,2.06,2,.12.51.16,1.05.34,1.54.42,1.15,1.55,1.83,2.71,1.69,1.22-.14,2.19-1.07,2.34-2.29.07-.56.14-1.11.4-1.61.58-1.11,1.78-1.6,3.01-1.24,1.13.33,1.89,1.42,1.82,2.62-.08,1.25-.99,2.25-2.19,2.42-2.21.3-2.62.68-3.07,2.9-.18.87-.41,1.23-.58,1.41-.06.07-.11.11-.18.17-.06.06-.68.59-1.34.79-.75.23-1.87.11-2.53-.56-.19-.19-.42-.24-.83-2.06-.37-1.66-.86-2.14-2.53-2.4-.74-.11-1.2-.32-1.53-.55-.08-.05-.25-.18-.4-.35-.59-.66-.67-1.78-.36-2.66.05-.15.52-1.43,1.72-1.77Z"/>
  <path class="cls-1" d="M7.87,5.22c-1.41-.01-2.6-1.21-2.6-2.62C5.26,1.19,6.46,0,7.87,0c1.42,0,2.58,1.17,2.59,2.61,0,1.42-1.18,2.62-2.6,2.61Z"/>
</svg>